<svg width="325" height="60" viewBox="0 0 325 60" fill="none" xmlns="http://www.w3.org/2000/svg">
<path d="M159.96 39.04H149.48L147.8 44H140.64L150.8 15.92H158.72L168.88 44H161.64L159.96 39.04ZM158.2 33.76L154.72 23.48L151.28 33.76H158.2ZM178.812 24.84C179.452 23.8 180.372 22.96 181.572 22.32C182.772 21.68 184.146 21.36 185.692 21.36C187.532 21.36 189.199 21.8267 190.692 22.76C192.186 23.6933 193.359 25.0267 194.212 26.76C195.092 28.4933 195.532 30.5067 195.532 32.8C195.532 35.0933 195.092 37.12 194.212 38.88C193.359 40.6133 192.186 41.96 190.692 42.92C189.199 43.8533 187.532 44.32 185.692 44.32C184.119 44.32 182.746 44.0133 181.572 43.4C180.399 42.76 179.479 41.92 178.812 40.88V44H171.972V14.4H178.812V24.84ZM188.572 32.8C188.572 31.0933 188.092 29.76 187.132 28.8C186.199 27.8133 185.039 27.32 183.652 27.32C182.292 27.32 181.132 27.8133 180.172 28.8C179.239 29.7867 178.772 31.1333 178.772 32.84C178.772 34.5467 179.239 35.8933 180.172 36.88C181.132 37.8667 182.292 38.36 183.652 38.36C185.012 38.36 186.172 37.8667 187.132 36.88C188.092 35.8667 188.572 34.5067 188.572 32.8ZM209.281 44.32C207.094 44.32 205.121 43.8533 203.361 42.92C201.627 41.9867 200.254 40.6533 199.241 38.92C198.254 37.1867 197.761 35.16 197.761 32.84C197.761 30.5467 198.267 28.5333 199.281 26.8C200.294 25.04 201.681 23.6933 203.441 22.76C205.201 21.8267 207.174 21.36 209.361 21.36C211.547 21.36 213.521 21.8267 215.281 22.76C217.041 23.6933 218.427 25.04 219.441 26.8C220.454 28.5333 220.961 30.5467 220.961 32.84C220.961 35.1333 220.441 37.16 219.401 38.92C218.387 40.6533 216.987 41.9867 215.201 42.92C213.441 43.8533 211.467 44.32 209.281 44.32ZM209.281 38.4C210.587 38.4 211.694 37.92 212.601 36.96C213.534 36 214.001 34.6267 214.001 32.84C214.001 31.0533 213.547 29.68 212.641 28.72C211.761 27.76 210.667 27.28 209.361 27.28C208.027 27.28 206.921 27.76 206.041 28.72C205.161 29.6533 204.721 31.0267 204.721 32.84C204.721 34.6267 205.147 36 206.001 36.96C206.881 37.92 207.974 38.4 209.281 38.4ZM246.629 21.68V44H239.789V40.96C239.096 41.9467 238.149 42.7467 236.949 43.36C235.776 43.9467 234.469 44.24 233.029 44.24C231.323 44.24 229.816 43.8667 228.509 43.12C227.203 42.3467 226.189 41.24 225.469 39.8C224.749 38.36 224.389 36.6667 224.389 34.72V21.68H231.189V33.8C231.189 35.2933 231.576 36.4533 232.349 37.28C233.123 38.1067 234.163 38.52 235.469 38.52C236.803 38.52 237.856 38.1067 238.629 37.28C239.403 36.4533 239.789 35.2933 239.789 33.8V21.68H246.629ZM263.983 38.2V44H260.503C258.023 44 256.089 43.4 254.703 42.2C253.316 40.9733 252.623 38.9867 252.623 36.24V27.36H249.903V21.68H252.623V16.24H259.463V21.68H263.943V27.36H259.463V36.32C259.463 36.9867 259.623 37.4667 259.943 37.76C260.263 38.0533 260.796 38.2 261.543 38.2H263.983ZM282.989 15.92V32.72C282.989 34.4 283.402 35.6933 284.229 36.6C285.056 37.5067 286.269 37.96 287.869 37.96C289.469 37.96 290.696 37.5067 291.549 36.6C292.402 35.6933 292.829 34.4 292.829 32.72V15.92H299.669V32.68C299.669 35.1867 299.136 37.3067 298.069 39.04C297.002 40.7733 295.562 42.08 293.749 42.96C291.962 43.84 289.962 44.28 287.749 44.28C285.536 44.28 283.549 43.8533 281.789 43C280.056 42.12 278.682 40.8133 277.669 39.08C276.656 37.32 276.149 35.1867 276.149 32.68V15.92H282.989ZM313.552 44.32C311.606 44.32 309.872 43.9867 308.352 43.32C306.832 42.6533 305.632 41.7467 304.752 40.6C303.872 39.4267 303.379 38.12 303.272 36.68H310.032C310.112 37.4533 310.472 38.08 311.112 38.56C311.752 39.04 312.539 39.28 313.472 39.28C314.326 39.28 314.979 39.12 315.432 38.8C315.912 38.4533 316.152 38.0133 316.152 37.48C316.152 36.84 315.819 36.3733 315.152 36.08C314.486 35.76 313.406 35.4133 311.912 35.04C310.312 34.6667 308.979 34.28 307.912 33.88C306.846 33.4533 305.926 32.8 305.152 31.92C304.379 31.0133 303.992 29.8 303.992 28.28C303.992 27 304.339 25.84 305.032 24.8C305.752 23.7333 306.792 22.8933 308.152 22.28C309.539 21.6667 311.179 21.36 313.072 21.36C315.872 21.36 318.072 22.0533 319.672 23.44C321.299 24.8267 322.232 26.6667 322.472 28.96H316.152C316.046 28.1867 315.699 27.5733 315.112 27.12C314.552 26.6667 313.806 26.44 312.872 26.44C312.072 26.44 311.459 26.6 311.032 26.92C310.606 27.2133 310.392 27.6267 310.392 28.16C310.392 28.8 310.726 29.28 311.392 29.6C312.086 29.92 313.152 30.24 314.592 30.56C316.246 30.9867 317.592 31.4133 318.632 31.84C319.672 32.24 320.579 32.9067 321.352 33.84C322.152 34.7467 322.566 35.9733 322.592 37.52C322.592 38.8267 322.219 40 321.472 41.04C320.752 42.0533 319.699 42.8533 318.312 43.44C316.952 44.0267 315.366 44.32 313.552 44.32Z" fill="white"/>
<path d="M21.1765 50L20.5882 44H20C14.4314 44 9.70588 42.35 5.82353 39.05C1.94118 35.75 0 31.7333 0 27C0 22.2667 1.94118 18.25 5.82353 14.95C9.70588 11.65 14.4314 10 20 10C22.7843 10 25.3827 10.4413 27.7953 11.324C30.2078 12.2067 32.3255 13.4233 34.1482 14.974C35.971 16.5247 37.4016 18.3247 38.44 20.374C39.4784 22.4233 39.9984 24.632 40 27C40 29.5 39.5192 31.9 38.5576 34.2C37.5961 36.5 36.2824 38.6333 34.6165 40.6C32.9506 42.5667 30.9702 44.35 28.6753 45.95C26.3804 47.55 23.8808 48.9 21.1765 50ZM25.8824 42.7C28.6667 40.7 30.9318 38.358 32.6776 35.674C34.4235 32.99 35.2957 30.0987 35.2941 27C35.2941 23.3667 33.8133 20.292 30.8518 17.776C27.8902 15.26 24.2729 14.0013 20 14C15.7255 14 12.1082 15.2587 9.14824 17.776C6.18824 20.2933 4.70745 23.368 4.70588 27C4.70588 30.6333 6.18667 33.708 9.14824 36.224C12.1098 38.74 15.7271 39.9987 20 40H25.8824V42.7ZM19.9412 37.95C20.6078 37.95 21.1765 37.75 21.6471 37.35C22.1176 36.95 22.3529 36.4667 22.3529 35.9C22.3529 35.3333 22.1176 34.85 21.6471 34.45C21.1765 34.05 20.6078 33.85 19.9412 33.85C19.2745 33.85 18.7059 34.05 18.2353 34.45C17.7647 34.85 17.5294 35.3333 17.5294 35.9C17.5294 36.4667 17.7647 36.95 18.2353 37.35C18.7059 37.75 19.2745 37.95 19.9412 37.95ZM18.2353 31.6H21.7647C21.7647 30.6 21.8824 29.9 22.1176 29.5C22.3529 29.1 23.098 28.3667 24.3529 27.3C25.0588 26.7 25.6471 26.05 26.1176 25.35C26.5882 24.65 26.8235 23.9 26.8235 23.1C26.8235 21.4 26.1467 20.1247 24.7929 19.274C23.4392 18.4233 21.8416 17.9987 20 18C18.2745 18 16.8235 18.4087 15.6471 19.226C14.4706 20.0433 13.6471 21.0347 13.1765 22.2L16.4706 23.3C16.6667 22.7333 17.0392 22.1747 17.5882 21.624C18.1373 21.0733 18.9412 20.7987 20 20.8C21.0588 20.8 21.8526 21.05 22.3812 21.55C22.9098 22.05 23.1749 22.6 23.1765 23.2C23.1765 23.7667 22.9804 24.2753 22.5882 24.726C22.1961 25.1767 21.7255 25.6347 21.1765 26.1C19.8039 27.1 18.9702 27.892 18.6753 28.476C18.3804 29.06 18.2337 30.1013 18.2353 31.6Z" fill="#F8F8F8"/>
</svg>
