<svg width="142" height="31" viewBox="0 0 142 31" fill="none" xmlns="http://www.w3.org/2000/svg">
<path d="M0.32 15.92C0.32 13.1467 0.92 10.68 2.12 8.52C3.32 6.33333 4.98667 4.64 7.12 3.44C9.28 2.21333 11.72 1.6 14.44 1.6C17.7733 1.6 20.6267 2.48 23 4.24C25.3733 6 26.96 8.4 27.76 11.44H20.24C19.68 10.2667 18.88 9.37333 17.84 8.76C16.8267 8.14667 15.6667 7.84 14.36 7.84C12.2533 7.84 10.5467 8.57333 9.24 10.04C7.93333 11.5067 7.28 13.4667 7.28 15.92C7.28 18.3733 7.93333 20.3333 9.24 21.8C10.5467 23.2667 12.2533 24 14.36 24C15.6667 24 16.8267 23.6933 17.84 23.08C18.88 22.4667 19.68 21.5733 20.24 20.4H27.76C26.96 23.44 25.3733 25.84 23 27.6C20.6267 29.3333 17.7733 30.2 14.44 30.2C11.72 30.2 9.28 29.6 7.12 28.4C4.98667 27.1733 3.32 25.48 2.12 23.32C0.92 21.16 0.32 18.6933 0.32 15.92ZM30.5888 18.8C30.5888 16.5067 31.0154 14.4933 31.8688 12.76C32.7488 11.0267 33.9354 9.69333 35.4288 8.76C36.9221 7.82667 38.5888 7.36 40.4288 7.36C42.0021 7.36 43.3754 7.68 44.5488 8.32C45.7488 8.96 46.6688 9.8 47.3088 10.84V7.68H54.1488V30H47.3088V26.84C46.6421 27.88 45.7088 28.72 44.5088 29.36C43.3354 30 41.9621 30.32 40.3888 30.32C38.5754 30.32 36.9221 29.8533 35.4288 28.92C33.9354 27.96 32.7488 26.6133 31.8688 24.88C31.0154 23.12 30.5888 21.0933 30.5888 18.8ZM47.3088 18.84C47.3088 17.1333 46.8288 15.7867 45.8688 14.8C44.9354 13.8133 43.7888 13.32 42.4288 13.32C41.0688 13.32 39.9088 13.8133 38.9488 14.8C38.0154 15.76 37.5488 17.0933 37.5488 18.8C37.5488 20.5067 38.0154 21.8667 38.9488 22.88C39.9088 23.8667 41.0688 24.36 42.4288 24.36C43.7888 24.36 44.9354 23.8667 45.8688 22.88C46.8288 21.8933 47.3088 20.5467 47.3088 18.84ZM72.6972 7.44C75.3105 7.44 77.3905 8.29333 78.9372 10C80.5105 11.68 81.2972 14 81.2972 16.96V30H74.4972V17.88C74.4972 16.3867 74.1105 15.2267 73.3372 14.4C72.5639 13.5733 71.5239 13.16 70.2172 13.16C68.9105 13.16 67.8705 13.5733 67.0972 14.4C66.3239 15.2267 65.9372 16.3867 65.9372 17.88V30H59.0972V7.68H65.9372V10.64C66.6305 9.65333 67.5639 8.88 68.7372 8.32C69.9105 7.73333 71.2305 7.44 72.6972 7.44ZM84.6903 18.84C84.6903 16.52 85.157 14.4933 86.0903 12.76C87.0503 11.0267 88.3703 9.69333 90.0503 8.76C91.757 7.82667 93.7036 7.36 95.8903 7.36C98.6903 7.36 101.024 8.09333 102.89 9.56C104.784 11.0267 106.024 13.0933 106.61 15.76H99.3303C98.717 14.0533 97.5303 13.2 95.7703 13.2C94.517 13.2 93.517 13.6933 92.7703 14.68C92.0236 15.64 91.6503 17.0267 91.6503 18.84C91.6503 20.6533 92.0236 22.0533 92.7703 23.04C93.517 24 94.517 24.48 95.7703 24.48C97.5303 24.48 98.717 23.6267 99.3303 21.92H106.61C106.024 24.5333 104.784 26.5867 102.89 28.08C100.997 29.5733 98.6636 30.32 95.8903 30.32C93.7036 30.32 91.757 29.8533 90.0503 28.92C88.3703 27.9867 87.0503 26.6533 86.0903 24.92C85.157 23.1867 84.6903 21.16 84.6903 18.84ZM131.309 18.48C131.309 19.12 131.269 19.7867 131.189 20.48H115.709C115.816 21.8667 116.256 22.9333 117.029 23.68C117.829 24.4 118.802 24.76 119.949 24.76C121.656 24.76 122.842 24.04 123.509 22.6H130.789C130.416 24.0667 129.736 25.3867 128.749 26.56C127.789 27.7333 126.576 28.6533 125.109 29.32C123.642 29.9867 122.002 30.32 120.189 30.32C118.002 30.32 116.056 29.8533 114.349 28.92C112.642 27.9867 111.309 26.6533 110.349 24.92C109.389 23.1867 108.909 21.16 108.909 18.84C108.909 16.52 109.376 14.4933 110.309 12.76C111.269 11.0267 112.602 9.69333 114.309 8.76C116.016 7.82667 117.976 7.36 120.189 7.36C122.349 7.36 124.269 7.81333 125.949 8.72C127.629 9.62667 128.936 10.92 129.869 12.6C130.829 14.28 131.309 16.24 131.309 18.48ZM124.309 16.68C124.309 15.5067 123.909 14.5733 123.109 13.88C122.309 13.1867 121.309 12.84 120.109 12.84C118.962 12.84 117.989 13.1733 117.189 13.84C116.416 14.5067 115.936 15.4533 115.749 16.68H124.309ZM141.758 0.4V30H134.918V0.4H141.758Z" fill="white"/>
</svg>
