<svg width="36" height="36" viewBox="0 0 36 36" fill="none" xmlns="http://www.w3.org/2000/svg">
<g clip-path="url(#clip0_301_85)">
<path d="M25.1896 20.4001C25.4768 19.6327 25.6225 18.8195 25.6196 18.0001C25.6196 16.1808 24.8969 14.4359 23.6104 13.1494C22.3239 11.8629 20.579 11.1401 18.7596 11.1401C17.9503 11.1411 17.1477 11.2867 16.3896 11.5701L17.9996 13.2301C18.2444 13.191 18.4918 13.1709 18.7396 13.1701C20.0261 13.1675 21.2613 13.6739 22.1756 14.5788C23.09 15.4838 23.6091 16.7137 23.6196 18.0001C23.6188 18.248 23.5988 18.4954 23.5596 18.7401L25.1896 20.4001Z" fill="black"/>
<path d="M34.2905 17.5298C30.9205 11.2998 25.0105 7.52979 18.4705 7.52979C16.6898 7.53397 14.9211 7.82087 13.2305 8.37979L14.8405 9.99978C16.0263 9.69332 17.2457 9.53544 18.4705 9.52978C24.1005 9.52978 29.2205 12.6698 32.2705 17.9598C31.1516 19.9224 29.6684 21.6534 27.9005 23.0598L29.3205 24.4798C31.3665 22.8291 33.0658 20.79 34.3205 18.4798L34.5805 17.9998L34.2905 17.5298Z" fill="black"/>
<path d="M4.86988 5.78004L9.32988 10.24C6.5108 12.0552 4.20678 14.5658 2.63988 17.53L2.37988 18L2.63988 18.48C6.00988 24.71 11.9199 28.48 18.4599 28.48C21.0125 28.4795 23.532 27.9018 25.8299 26.79L30.8299 31.79L32.5799 30.29L6.57988 4.29004L4.86988 5.78004ZM14.6199 15.53L21.2699 22.18C20.5185 22.6451 19.6535 22.8942 18.7699 22.9C18.1278 22.9001 17.4921 22.7731 16.8993 22.5265C16.3064 22.2799 15.7682 21.9185 15.3156 21.4631C14.863 21.0077 14.5049 20.4672 14.2619 19.8729C14.019 19.2786 13.8959 18.6421 13.8999 18C13.9112 17.1266 14.1601 16.2727 14.6199 15.53ZM13.1699 14.08C12.2343 15.3994 11.7958 17.0073 11.932 18.619C12.0682 20.2307 12.7703 21.7422 13.914 22.8859C15.0577 24.0296 16.5692 24.7317 18.1809 24.8679C19.7926 25.0041 21.4005 24.5656 22.7199 23.63L24.3199 25.23C22.4677 26.0218 20.4742 26.43 18.4599 26.43C12.8299 26.43 7.70988 23.29 4.65988 18C6.12359 15.4083 8.23161 13.2382 10.7799 11.7L13.1699 14.08Z" fill="black"/>
</g>
<defs>
<clipPath id="clip0_301_85">
<rect width="36" height="36" fill="white"/>
</clipPath>
</defs>
</svg>
