<svg width="295" height="60" viewBox="0 0 295 60" fill="none" xmlns="http://www.w3.org/2000/svg">
<path d="M149.32 38.72H158.28V44H142.48V15.92H149.32V38.72ZM171.703 44.32C169.516 44.32 167.543 43.8533 165.783 42.92C164.049 41.9867 162.676 40.6533 161.663 38.92C160.676 37.1867 160.183 35.16 160.183 32.84C160.183 30.5467 160.689 28.5333 161.702 26.8C162.716 25.04 164.103 23.6933 165.863 22.76C167.623 21.8267 169.596 21.36 171.783 21.36C173.969 21.36 175.943 21.8267 177.703 22.76C179.463 23.6933 180.849 25.04 181.863 26.8C182.876 28.5333 183.383 30.5467 183.383 32.84C183.383 35.1333 182.863 37.16 181.823 38.92C180.809 40.6533 179.409 41.9867 177.623 42.92C175.863 43.8533 173.889 44.32 171.703 44.32ZM171.703 38.4C173.009 38.4 174.116 37.92 175.023 36.96C175.956 36 176.423 34.6267 176.423 32.84C176.423 31.0533 175.969 29.68 175.063 28.72C174.183 27.76 173.089 27.28 171.783 27.28C170.449 27.28 169.343 27.76 168.463 28.72C167.583 29.6533 167.143 31.0267 167.143 32.84C167.143 34.6267 167.569 36 168.423 36.96C169.303 37.92 170.396 38.4 171.703 38.4ZM195.491 21.36C197.065 21.36 198.438 21.68 199.611 22.32C200.811 22.96 201.731 23.8 202.371 24.84V21.68H209.211V43.96C209.211 46.0133 208.798 47.8667 207.971 49.52C207.171 51.2 205.931 52.5333 204.251 53.52C202.598 54.5067 200.531 55 198.051 55C194.745 55 192.065 54.2133 190.011 52.64C187.958 51.0933 186.785 48.9867 186.491 46.32H193.251C193.465 47.1733 193.971 47.84 194.771 48.32C195.571 48.8267 196.558 49.08 197.731 49.08C199.145 49.08 200.265 48.6667 201.091 47.84C201.945 47.04 202.371 45.7467 202.371 43.96V40.8C201.705 41.84 200.785 42.6933 199.611 43.36C198.438 44 197.065 44.32 195.491 44.32C193.651 44.32 191.985 43.8533 190.491 42.92C188.998 41.96 187.811 40.6133 186.931 38.88C186.078 37.12 185.651 35.0933 185.651 32.8C185.651 30.5067 186.078 28.4933 186.931 26.76C187.811 25.0267 188.998 23.6933 190.491 22.76C191.985 21.8267 193.651 21.36 195.491 21.36ZM202.371 32.84C202.371 31.1333 201.891 29.7867 200.931 28.8C199.998 27.8133 198.851 27.32 197.491 27.32C196.131 27.32 194.971 27.8133 194.011 28.8C193.078 29.76 192.611 31.0933 192.611 32.8C192.611 34.5067 193.078 35.8667 194.011 36.88C194.971 37.8667 196.131 38.36 197.491 38.36C198.851 38.36 199.998 37.8667 200.931 36.88C201.891 35.8933 202.371 34.5467 202.371 32.84ZM235.916 44.28C233.276 44.28 230.85 43.6667 228.636 42.44C226.45 41.2133 224.703 39.5067 223.396 37.32C222.116 35.1067 221.476 32.6267 221.476 29.88C221.476 27.1333 222.116 24.6667 223.396 22.48C224.703 20.2933 226.45 18.5867 228.636 17.36C230.85 16.1333 233.276 15.52 235.916 15.52C238.556 15.52 240.97 16.1333 243.156 17.36C245.37 18.5867 247.103 20.2933 248.356 22.48C249.636 24.6667 250.276 27.1333 250.276 29.88C250.276 32.6267 249.636 35.1067 248.356 37.32C247.076 39.5067 245.343 41.2133 243.156 42.44C240.97 43.6667 238.556 44.28 235.916 44.28ZM235.916 38.04C238.156 38.04 239.943 37.2933 241.276 35.8C242.636 34.3067 243.316 32.3333 243.316 29.88C243.316 27.4 242.636 25.4267 241.276 23.96C239.943 22.4667 238.156 21.72 235.916 21.72C233.65 21.72 231.836 22.4533 230.476 23.92C229.143 25.3867 228.476 27.3733 228.476 29.88C228.476 32.36 229.143 34.3467 230.476 35.84C231.836 37.3067 233.65 38.04 235.916 38.04ZM276.122 21.68V44H269.282V40.96C268.588 41.9467 267.642 42.7467 266.442 43.36C265.268 43.9467 263.962 44.24 262.522 44.24C260.815 44.24 259.308 43.8667 258.002 43.12C256.695 42.3467 255.682 41.24 254.962 39.8C254.242 38.36 253.882 36.6667 253.882 34.72V21.68H260.682V33.8C260.682 35.2933 261.068 36.4533 261.842 37.28C262.615 38.1067 263.655 38.52 264.962 38.52C266.295 38.52 267.348 38.1067 268.122 37.28C268.895 36.4533 269.282 35.2933 269.282 33.8V21.68H276.122ZM293.475 38.2V44H289.995C287.515 44 285.581 43.4 284.195 42.2C282.808 40.9733 282.115 38.9867 282.115 36.24V27.36H279.395V21.68H282.115V16.24H288.955V21.68H293.435V27.36H288.955V36.32C288.955 36.9867 289.115 37.4667 289.435 37.76C289.755 38.0533 290.288 38.2 291.035 38.2H293.475Z" fill="white"/>
<path d="M28 32.2222V27.7778H10V21.1111L0 30L10 38.8889V32.2222H28Z" fill="#F8F8F8"/>
<path d="M36 10H18C15.794 10 14 11.9933 14 14.4444V23.3333H18V14.4444H36V45.5556H18V36.6667H14V45.5556C14 48.0067 15.794 50 18 50H36C38.206 50 40 48.0067 40 45.5556V14.4444C40 11.9933 38.206 10 36 10Z" fill="#F8F8F8"/>
</svg>
