<svg width="25" height="20" viewBox="0 0 25 20" fill="none" xmlns="http://www.w3.org/2000/svg">
<path d="M9.60039 7.5999C9.60039 8.23642 9.37124 8.84687 8.96335 9.29696C8.55546 9.74705 8.00224 9.9999 7.42539 9.9999C6.84855 9.9999 6.29532 9.74705 5.88743 9.29696C5.47954 8.84687 5.25039 8.23642 5.25039 7.5999C5.25039 6.96338 5.47954 6.35293 5.88743 5.90285C6.29532 5.45276 6.84855 5.1999 7.42539 5.1999C8.00224 5.1999 8.55546 5.45276 8.96335 5.90285C9.37124 6.35293 9.60039 6.96338 9.60039 7.5999ZM3.80039 12.7183C3.80077 12.3157 3.94587 11.9298 4.20385 11.6451C4.46183 11.3604 4.81161 11.2003 5.17644 11.1999H9.67289C10.0377 11.2003 10.3875 11.3604 10.6455 11.6451C10.9035 11.9298 11.0486 12.3157 11.0489 12.7183C11.0489 14.0735 10.2123 15.2543 9.02039 15.5839L8.93484 15.6079C7.94304 15.8799 6.90484 15.8799 5.91304 15.6079L5.82604 15.5839C5.24724 15.4237 4.73353 15.0548 4.36652 14.5356C3.99951 14.0164 3.80025 13.3768 3.80039 12.7183ZM14.6754 6.7999C14.4831 6.7999 14.2987 6.88419 14.1627 7.03422C14.0268 7.18425 13.9504 7.38773 13.9504 7.5999C13.9504 7.81208 14.0268 8.01556 14.1627 8.16559C14.2987 8.31562 14.4831 8.3999 14.6754 8.3999H19.0254C19.2177 8.3999 19.4021 8.31562 19.538 8.16559C19.674 8.01556 19.7504 7.81208 19.7504 7.5999C19.7504 7.38773 19.674 7.18425 19.538 7.03422C19.4021 6.88419 19.2177 6.7999 19.0254 6.7999H14.6754ZM14.6754 11.5999C14.4831 11.5999 14.2987 11.6842 14.1627 11.8342C14.0268 11.9842 13.9504 12.1877 13.9504 12.3999C13.9504 12.6121 14.0268 12.8156 14.1627 12.9656C14.2987 13.1156 14.4831 13.1999 14.6754 13.1999H19.0254C19.2177 13.1999 19.4021 13.1156 19.538 12.9656C19.674 12.8156 19.7504 12.6121 19.7504 12.3999C19.7504 12.1877 19.674 11.9842 19.538 11.8342C19.4021 11.6842 19.2177 11.5999 19.0254 11.5999H14.6754ZM0.900391 3.1999C0.900391 1.6543 2.03719 0.399902 3.43789 0.399902H21.5629C22.9636 0.399902 24.1004 1.6543 24.1004 3.1999V16.7999C24.1004 17.5425 23.833 18.2547 23.3572 18.7798C22.8813 19.3049 22.2359 19.5999 21.5629 19.5999H3.43789C2.7649 19.5999 2.11948 19.3049 1.64361 18.7798C1.16773 18.2547 0.900391 17.5425 0.900391 16.7999V3.1999ZM3.43789 1.9999C3.14947 1.9999 2.87286 2.12633 2.66891 2.35137C2.46497 2.57642 2.35039 2.88164 2.35039 3.1999V16.7999C2.35039 17.4623 2.83759 17.9999 3.43789 17.9999H21.5629C21.8513 17.9999 22.1279 17.8735 22.3319 17.6484C22.5358 17.4234 22.6504 17.1182 22.6504 16.7999V3.1999C22.6504 2.88164 22.5358 2.57642 22.3319 2.35137C22.1279 2.12633 21.8513 1.9999 21.5629 1.9999H3.43789Z" fill="black"/>
</svg>
