<svg width="21" height="14" viewBox="0 0 21 14" fill="none" xmlns="http://www.w3.org/2000/svg">
<path d="M10.5 1.86667C12.2552 1.86096 13.9763 2.33966 15.4657 3.24774C16.955 4.15582 18.152 5.45642 18.9191 7C17.3441 10.1453 14.1273 12.1333 10.5 12.1333C6.87273 12.1333 3.65591 10.1453 2.08091 7C2.848 5.45642 4.04501 4.15582 5.53434 3.24774C7.02367 2.33966 8.74484 1.86096 10.5 1.86667ZM10.5 0C5.72727 0 1.65136 2.90267 0 7C1.65136 11.0973 5.72727 14 10.5 14C15.2727 14 19.3486 11.0973 21 7C19.3486 2.90267 15.2727 0 10.5 0ZM10.5 4.66667C11.1329 4.66667 11.7399 4.9125 12.1874 5.35008C12.6349 5.78767 12.8864 6.38116 12.8864 7C12.8864 7.61884 12.6349 8.21233 12.1874 8.64992C11.7399 9.0875 11.1329 9.33333 10.5 9.33333C9.8671 9.33333 9.26012 9.0875 8.81259 8.64992C8.36506 8.21233 8.11364 7.61884 8.11364 7C8.11364 6.38116 8.36506 5.78767 8.81259 5.35008C9.26012 4.9125 9.8671 4.66667 10.5 4.66667ZM10.5 2.8C8.13273 2.8 6.20455 4.68533 6.20455 7C6.20455 9.31467 8.13273 11.2 10.5 11.2C12.8673 11.2 14.7955 9.31467 14.7955 7C14.7955 4.68533 12.8673 2.8 10.5 2.8Z" fill="black"/>
</svg>
