<svg width="39" height="24" viewBox="0 0 39 24" fill="none" xmlns="http://www.w3.org/2000/svg">
<path d="M19.5 3.2C22.7596 3.19022 25.956 4.01085 28.7219 5.56756C31.4878 7.12427 33.7109 9.35386 35.1355 12C32.2105 17.392 26.2364 20.8 19.5 20.8C12.7636 20.8 6.78955 17.392 3.86455 12C5.28914 9.35386 7.51217 7.12427 10.2781 5.56756C13.044 4.01085 16.2404 3.19022 19.5 3.2ZM19.5 0C10.6364 0 3.06682 4.976 0 12C3.06682 19.024 10.6364 24 19.5 24C28.3636 24 35.9332 19.024 39 12C35.9332 4.976 28.3636 0 19.5 0ZM19.5 8C20.6754 8 21.8026 8.42143 22.6338 9.17157C23.4649 9.92172 23.9318 10.9391 23.9318 12C23.9318 13.0609 23.4649 14.0783 22.6338 14.8284C21.8026 15.5786 20.6754 16 19.5 16C18.3246 16 17.1974 15.5786 16.3662 14.8284C15.5351 14.0783 15.0682 13.0609 15.0682 12C15.0682 10.9391 15.5351 9.92172 16.3662 9.17157C17.1974 8.42143 18.3246 8 19.5 8ZM19.5 4.8C15.1036 4.8 11.5227 8.032 11.5227 12C11.5227 15.968 15.1036 19.2 19.5 19.2C23.8964 19.2 27.4773 15.968 27.4773 12C27.4773 8.032 23.8964 4.8 19.5 4.8Z" fill="#828788"/>
</svg>
