<svg width="1716" height="185" viewBox="0 0 1716 185" fill="none" xmlns="http://www.w3.org/2000/svg">
<path d="M0 34.3918L97.8977 17.2181C162.694 5.85115 229.097 7.38285 293.3 21.7254L380.688 41.2471C458.75 58.6856 539.856 57.1417 617.198 36.7451L623.779 35.0096C702.279 14.3075 784.64 13.0317 863.744 31.2924L954.105 52.1517C999.042 62.5253 1045.2 66.6316 1091.26 64.3541L1240.68 56.966C1267.15 55.6574 1293.47 52.2471 1319.4 46.7672L1418.88 25.7379C1488.26 11.0731 1559.97 11.3334 1629.24 26.5014L1716 45.5V154.514L0 159V34.3918Z" fill="url(#paint0_linear_198_88)" fill-opacity="0.5"/>
<path d="M0 73.5L117.465 48.532C188.625 33.4063 262.402 35.8853 332.387 55.7535L368.467 65.9966C431.578 83.9134 498.629 82.3454 560.833 61.4981V61.4981C623.957 40.3423 692.05 39.0477 755.933 57.7887L778.49 64.4062C843.184 83.3853 912.022 82.9898 976.494 63.2686V63.2686C1032.81 46.0433 1092.59 43.5211 1150.15 55.9424L1185.4 63.5484C1255.07 78.5811 1327.47 74.8986 1395.25 52.8753V52.8753C1455.7 33.2362 1519.92 28.1487 1582.7 38.0268L1716 59V185H0V73.5Z" fill="url(#paint1_linear_198_88)"/>
<path d="M0 37L136.037 60.7483C196.566 71.3149 258.524 70.6344 318.806 58.741L353.425 51.9108C403.513 42.0286 454.819 39.8759 505.559 45.5277L591.657 55.1181C629.275 59.3082 667.247 59.2133 704.844 54.8352L784.496 45.5596C833.233 39.8841 882.54 41.4134 930.832 50.0984L985.388 59.9098C1044.57 70.5526 1105.18 70.434 1164.32 59.5598L1220.57 49.2154C1264.66 41.1086 1309.63 38.9671 1354.29 42.8484L1457.73 51.8388C1486.46 54.3357 1515.35 54.3426 1544.08 51.8594L1716 37V185H0V37Z" fill="url(#paint2_linear_198_88)" fill-opacity="0.8"/>
<defs>
<linearGradient id="paint0_linear_198_88" x1="-90.0334" y1="78.2539" x2="2083.88" y2="78.2539" gradientUnits="userSpaceOnUse">
<stop stop-color="#0052D4"/>
<stop offset="0.5" stop-color="#4364F7"/>
<stop offset="1" stop-color="#6FB1FC"/>
</linearGradient>
<linearGradient id="paint1_linear_198_88" x1="0" y1="104" x2="1716" y2="104" gradientUnits="userSpaceOnUse">
<stop stop-color="#0052D4"/>
<stop offset="0.5" stop-color="#4364F7"/>
<stop offset="1" stop-color="#6FB1FC"/>
</linearGradient>
<linearGradient id="paint2_linear_198_88" x1="0" y1="111" x2="1716" y2="111" gradientUnits="userSpaceOnUse">
<stop stop-color="#0052D4"/>
<stop offset="0.5" stop-color="#4364F7"/>
<stop offset="1" stop-color="#6FB1FC"/>
</linearGradient>
</defs>
</svg>
