<svg width="305" height="60" viewBox="0 0 305 60" fill="none" xmlns="http://www.w3.org/2000/svg">
<path d="M152.64 44.28C150.587 44.28 148.747 43.9467 147.12 43.28C145.493 42.6133 144.187 41.6267 143.2 40.32C142.24 39.0133 141.733 37.44 141.68 35.6H148.96C149.067 36.64 149.427 37.44 150.04 38C150.653 38.5333 151.453 38.8 152.44 38.8C153.453 38.8 154.253 38.5733 154.84 38.12C155.427 37.64 155.72 36.9867 155.72 36.16C155.72 35.4667 155.48 34.8933 155 34.44C154.547 33.9867 153.973 33.6133 153.28 33.32C152.613 33.0267 151.653 32.6933 150.4 32.32C148.587 31.76 147.107 31.2 145.96 30.64C144.813 30.08 143.827 29.2533 143 28.16C142.173 27.0667 141.76 25.64 141.76 23.88C141.76 21.2667 142.707 19.2267 144.6 17.76C146.493 16.2667 148.96 15.52 152 15.52C155.093 15.52 157.587 16.2667 159.48 17.76C161.373 19.2267 162.387 21.28 162.52 23.92H155.12C155.067 23.0133 154.733 22.3067 154.12 21.8C153.507 21.2667 152.72 21 151.76 21C150.933 21 150.267 21.2267 149.76 21.68C149.253 22.1067 149 22.7333 149 23.56C149 24.4667 149.427 25.1733 150.28 25.68C151.133 26.1867 152.467 26.7333 154.28 27.32C156.093 27.9333 157.56 28.52 158.68 29.08C159.827 29.64 160.813 30.4533 161.64 31.52C162.467 32.5867 162.88 33.96 162.88 35.64C162.88 37.24 162.467 38.6933 161.64 40C160.84 41.3067 159.667 42.3467 158.12 43.12C156.573 43.8933 154.747 44.28 152.64 44.28ZM189.129 21.68V44H182.289V40.96C181.596 41.9467 180.649 42.7467 179.449 43.36C178.276 43.9467 176.969 44.24 175.529 44.24C173.823 44.24 172.316 43.8667 171.009 43.12C169.703 42.3467 168.689 41.24 167.969 39.8C167.249 38.36 166.889 36.6667 166.889 34.72V21.68H173.689V33.8C173.689 35.2933 174.076 36.4533 174.849 37.28C175.623 38.1067 176.663 38.52 177.969 38.52C179.303 38.52 180.356 38.1067 181.129 37.28C181.903 36.4533 182.289 35.2933 182.289 33.8V21.68H189.129ZM200.883 24.84C201.549 23.8 202.469 22.96 203.643 22.32C204.816 21.68 206.189 21.36 207.763 21.36C209.603 21.36 211.269 21.8267 212.763 22.76C214.256 23.6933 215.429 25.0267 216.283 26.76C217.163 28.4933 217.603 30.5067 217.603 32.8C217.603 35.0933 217.163 37.12 216.283 38.88C215.429 40.6133 214.256 41.96 212.763 42.92C211.269 43.8533 209.603 44.32 207.763 44.32C206.216 44.32 204.843 44 203.643 43.36C202.469 42.72 201.549 41.8933 200.883 40.88V54.64H194.043V21.68H200.883V24.84ZM210.643 32.8C210.643 31.0933 210.163 29.76 209.203 28.8C208.269 27.8133 207.109 27.32 205.723 27.32C204.363 27.32 203.203 27.8133 202.243 28.8C201.309 29.7867 200.843 31.1333 200.843 32.84C200.843 34.5467 201.309 35.8933 202.243 36.88C203.203 37.8667 204.363 38.36 205.723 38.36C207.083 38.36 208.243 37.8667 209.203 36.88C210.163 35.8667 210.643 34.5067 210.643 32.8ZM228.031 24.84C228.698 23.8 229.618 22.96 230.791 22.32C231.964 21.68 233.338 21.36 234.911 21.36C236.751 21.36 238.418 21.8267 239.911 22.76C241.404 23.6933 242.578 25.0267 243.431 26.76C244.311 28.4933 244.751 30.5067 244.751 32.8C244.751 35.0933 244.311 37.12 243.431 38.88C242.578 40.6133 241.404 41.96 239.911 42.92C238.418 43.8533 236.751 44.32 234.911 44.32C233.364 44.32 231.991 44 230.791 43.36C229.618 42.72 228.698 41.8933 228.031 40.88V54.64H221.191V21.68H228.031V24.84ZM237.791 32.8C237.791 31.0933 237.311 29.76 236.351 28.8C235.418 27.8133 234.258 27.32 232.871 27.32C231.511 27.32 230.351 27.8133 229.391 28.8C228.458 29.7867 227.991 31.1333 227.991 32.84C227.991 34.5467 228.458 35.8933 229.391 36.88C230.351 37.8667 231.511 38.36 232.871 38.36C234.231 38.36 235.391 37.8667 236.351 36.88C237.311 35.8667 237.791 34.5067 237.791 32.8ZM258.499 44.32C256.313 44.32 254.339 43.8533 252.579 42.92C250.846 41.9867 249.473 40.6533 248.459 38.92C247.473 37.1867 246.979 35.16 246.979 32.84C246.979 30.5467 247.486 28.5333 248.499 26.8C249.513 25.04 250.899 23.6933 252.659 22.76C254.419 21.8267 256.393 21.36 258.579 21.36C260.766 21.36 262.739 21.8267 264.499 22.76C266.259 23.6933 267.646 25.04 268.659 26.8C269.673 28.5333 270.179 30.5467 270.179 32.84C270.179 35.1333 269.659 37.16 268.619 38.92C267.606 40.6533 266.206 41.9867 264.419 42.92C262.659 43.8533 260.686 44.32 258.499 44.32ZM258.499 38.4C259.806 38.4 260.913 37.92 261.819 36.96C262.753 36 263.219 34.6267 263.219 32.84C263.219 31.0533 262.766 29.68 261.859 28.72C260.979 27.76 259.886 27.28 258.579 27.28C257.246 27.28 256.139 27.76 255.259 28.72C254.379 29.6533 253.939 31.0267 253.939 32.84C253.939 34.6267 254.366 36 255.219 36.96C256.099 37.92 257.193 38.4 258.499 38.4ZM280.648 25.4C281.448 24.1733 282.448 23.2133 283.648 22.52C284.848 21.8 286.181 21.44 287.648 21.44V28.68H285.768C284.061 28.68 282.781 29.0533 281.928 29.8C281.075 30.52 280.648 31.8 280.648 33.64V44H273.808V21.68H280.648V25.4ZM303.358 38.2V44H299.878C297.398 44 295.464 43.4 294.078 42.2C292.691 40.9733 291.998 38.9867 291.998 36.24V27.36H289.278V21.68H291.998V16.24H298.838V21.68H303.318V27.36H298.838V36.32C298.838 36.9867 298.998 37.4667 299.318 37.76C299.638 38.0533 300.171 38.2 300.918 38.2H303.358Z" fill="white"/>
<path d="M18 50V45.5556H34V29.7778C34 27.6296 33.6333 25.6111 32.9 23.7222C32.1667 21.8333 31.1667 20.1852 29.9 18.7778C28.6333 17.3704 27.15 16.2593 25.45 15.4444C23.75 14.6296 21.9333 14.2222 20 14.2222C18.0667 14.2222 16.25 14.6296 14.55 15.4444C12.85 16.2593 11.3667 17.3704 10.1 18.7778C8.83333 20.1852 7.83333 21.8333 7.1 23.7222C6.36667 25.6111 6 27.6296 6 29.7778V43.3333H4C2.9 43.3333 1.95867 42.8978 1.176 42.0267C0.393333 41.1556 0.00133333 40.1096 0 38.8889V34.4444C0 33.5926 0.183334 32.843 0.55 32.1956C0.916667 31.5481 1.4 31.02 2 30.6111L2.15 27.6667C2.45 24.963 3.142 22.5185 4.226 20.3333C5.31 18.1482 6.66 16.2963 8.276 14.7778C9.892 13.2593 11.7087 12.083 13.726 11.2489C15.7433 10.4148 17.8347 9.99852 20 10C22.2 10 24.3087 10.417 26.326 11.2511C28.3433 12.0852 30.1513 13.2704 31.75 14.8067C33.35 16.343 34.692 18.1948 35.776 20.3622C36.86 22.5296 37.5513 24.9459 37.85 27.6111L38 30.5C38.6 30.8333 39.0833 31.3244 39.45 31.9733C39.8167 32.6222 40 33.3348 40 34.1111V39.2222C40 40.037 39.8167 40.7593 39.45 41.3889C39.0833 42.0185 38.6 42.5 38 42.8333V45.5556C38 46.7778 37.608 47.8244 36.824 48.6956C36.04 49.5667 35.0987 50.0015 34 50H18ZM14 34.4444C13.4333 34.4444 12.958 34.2311 12.574 33.8044C12.19 33.3778 11.9987 32.8504 12 32.2222C12 31.5926 12.192 31.0644 12.576 30.6378C12.96 30.2111 13.4347 29.9985 14 30C14.5667 30 15.042 30.2133 15.426 30.64C15.81 31.0667 16.0013 31.5941 16 32.2222C16 32.8519 15.808 33.38 15.424 33.8067C15.04 34.2333 14.5653 34.4459 14 34.4444ZM26 34.4444C25.4333 34.4444 24.958 34.2311 24.574 33.8044C24.19 33.3778 23.9987 32.8504 24 32.2222C24 31.5926 24.192 31.0644 24.576 30.6378C24.96 30.2111 25.4347 29.9985 26 30C26.5667 30 27.042 30.2133 27.426 30.64C27.81 31.0667 28.0013 31.5941 28 32.2222C28 32.8519 27.808 33.38 27.424 33.8067C27.04 34.2333 26.5653 34.4459 26 34.4444ZM8.05 31C7.91667 28.8148 8.192 26.8333 8.876 25.0556C9.56 23.2778 10.4767 21.7682 11.626 20.5267C12.7753 19.2867 14.1 18.3333 15.6 17.6667C17.1 17 18.6 16.6667 20.1 16.6667C23.1333 16.6667 25.7587 17.7319 27.976 19.8622C30.1933 21.9926 31.5347 24.6489 32 27.8311C28.8667 27.7956 26.0333 26.8607 23.5 25.0267C20.9667 23.1926 19.05 20.8133 17.75 17.8889C17.2167 20.8889 16.0913 23.5467 14.374 25.8622C12.6567 28.1778 10.5473 29.8904 8.05 31Z" fill="#F8F8F8"/>
</svg>
